<svg width="52" height="52" viewBox="0 0 52 52" fill="none" xmlns="http://www.w3.org/2000/svg">
<rect width="52" height="52" rx="26" fill="#FFC731" fill-opacity="0.3"/>
<path d="M31.25 35.2662L28.9837 33L27.75 34.2337L31.25 37.7337L38.25 30.7337L37.0163 29.5L31.25 35.2662Z" fill="#FFC731"/>
<path d="M26 27.75C26.9665 27.75 27.75 26.9665 27.75 26C27.75 25.0335 26.9665 24.25 26 24.25C25.0335 24.25 24.25 25.0335 24.25 26C24.25 26.9665 25.0335 27.75 26 27.75Z" fill="#FFC731"/>
<path d="M26 31.25C24.9616 31.25 23.9466 30.9421 23.0833 30.3652C22.2199 29.7883 21.547 28.9684 21.1496 28.0091C20.7523 27.0498 20.6483 25.9942 20.8509 24.9758C21.0535 23.9574 21.5535 23.0219 22.2877 22.2877C23.0219 21.5535 23.9574 21.0535 24.9758 20.8509C25.9942 20.6483 27.0498 20.7523 28.0091 21.1496C28.9684 21.547 29.7883 22.2199 30.3652 23.0833C30.9421 23.9466 31.25 24.9616 31.25 26C31.2484 27.3919 30.6947 28.7263 29.7105 29.7105C28.7263 30.6947 27.3919 31.2484 26 31.25ZM26 22.5C25.3078 22.5 24.6311 22.7053 24.0555 23.0899C23.4799 23.4744 23.0313 24.0211 22.7664 24.6606C22.5015 25.3002 22.4322 26.0039 22.5673 26.6828C22.7023 27.3618 23.0356 27.9854 23.5251 28.4749C24.0146 28.9644 24.6383 29.2977 25.3172 29.4328C25.9961 29.5678 26.6999 29.4985 27.3394 29.2336C27.9789 28.9687 28.5256 28.5201 28.9101 27.9445C29.2947 27.3689 29.5 26.6922 29.5 26C29.4988 25.0721 29.1297 24.1825 28.4736 23.5264C27.8175 22.8703 26.9279 22.5012 26 22.5Z" fill="#FFC731"/>
<path d="M36.5 26C36.5 23.9233 35.8842 21.8932 34.7304 20.1665C33.5767 18.4398 31.9368 17.094 30.0182 16.2993C28.0996 15.5045 25.9884 15.2966 23.9516 15.7018C21.9148 16.1069 20.0438 17.1069 18.5754 18.5754C17.1069 20.0438 16.1069 21.9148 15.7018 23.9516C15.2966 25.9884 15.5045 28.0996 16.2993 30.0182C17.094 31.9368 18.4398 33.5767 20.1665 34.7304C21.8932 35.8842 23.9233 36.5 26 36.5V34.75C24.2694 34.75 22.5777 34.2368 21.1388 33.2754C19.6998 32.3139 18.5783 30.9473 17.9161 29.3485C17.2538 27.7496 17.0805 25.9903 17.4181 24.293C17.7558 22.5956 18.5891 21.0365 19.8128 19.8128C21.0365 18.5891 22.5956 17.7558 24.293 17.4181C25.9903 17.0805 27.7496 17.2538 29.3485 17.9161C30.9473 18.5783 32.3139 19.6998 33.2754 21.1388C34.2368 22.5777 34.75 24.2694 34.75 26H36.5Z" fill="#FFC731"/>
</svg>
