<svg width="52" height="52" viewBox="0 0 52 52" fill="none" xmlns="http://www.w3.org/2000/svg">
<rect width="52" height="52" rx="26" fill="#FB7601" fill-opacity="0.3"/>
<path d="M24.0837 15H25.917V18.6667H24.0837V15ZM18.5846 15.5372L17.2884 16.8333L19.9587 19.5045L21.2557 18.2083L18.5846 15.5372ZM14.917 27.5895L18.9687 20.5H31.032L35.0837 27.5895V35.1667H14.917V27.5895ZM20.032 22.3333L17.4131 26.9167H22.1596L22.3365 27.6042C22.4894 28.1943 22.834 28.717 23.3162 29.0901C23.7983 29.4632 24.3907 29.6657 25.0003 29.6657C25.61 29.6657 26.2024 29.4632 26.6845 29.0901C27.1666 28.717 27.5112 28.1943 27.6642 27.6042L27.8411 26.9167H32.5876L29.9687 22.3333H20.032ZM31.4161 15.5372L28.7449 18.2083L30.0411 19.5045L32.7122 16.8333L31.4161 15.5372Z" fill="#FB7601"/>
</svg>
