<svg width="52" height="52" viewBox="0 0 52 52" fill="none" xmlns="http://www.w3.org/2000/svg">
<rect width="52" height="52" rx="26" fill="#54CD98" fill-opacity="0.3"/>
<path fill-rule="evenodd" clip-rule="evenodd" d="M33.5 20.5C33.1022 20.5 32.7206 20.658 32.4393 20.9393C32.158 21.2206 32 21.6022 32 22V23H35V22C35 21.6022 34.842 21.2206 34.5607 20.9393C34.2794 20.658 33.8978 20.5 33.5 20.5ZM35 24H32V32.25L33.5 34.5L35 32.25V24ZM17 18.5V33.5C17 33.8978 17.158 34.2794 17.4393 34.5607C17.7206 34.842 18.1022 35 18.5 35H29.5C29.8978 35 30.2794 34.842 30.5607 34.5607C30.842 34.2794 31 33.8978 31 33.5V18.5C31 18.1022 30.842 17.7206 30.5607 17.4393C30.2794 17.158 29.8978 17 29.5 17H18.5C18.1022 17 17.7206 17.158 17.4393 17.4393C17.158 17.7206 17 18.1022 17 18.5ZM24 21.5C24 21.3674 24.0527 21.2402 24.1464 21.1464C24.2402 21.0527 24.3674 21 24.5 21H28.5C28.6326 21 28.7598 21.0527 28.8536 21.1464C28.9473 21.2402 29 21.3674 29 21.5C29 21.6326 28.9473 21.7598 28.8536 21.8536C28.7598 21.9473 28.6326 22 28.5 22H24.5C24.3674 22 24.2402 21.9473 24.1464 21.8536C24.0527 21.7598 24 21.6326 24 21.5ZM24.5 23C24.3674 23 24.2402 23.0527 24.1464 23.1464C24.0527 23.2402 24 23.3674 24 23.5C24 23.6326 24.0527 23.7598 24.1464 23.8536C24.2402 23.9473 24.3674 24 24.5 24H28.5C28.6326 24 28.7598 23.9473 28.8536 23.8536C28.9473 23.7598 29 23.6326 29 23.5C29 23.3674 28.9473 23.2402 28.8536 23.1464C28.7598 23.0527 28.6326 23 28.5 23H24.5ZM24 28C24 27.8674 24.0527 27.7402 24.1464 27.6464C24.2402 27.5527 24.3674 27.5 24.5 27.5H28.5C28.6326 27.5 28.7598 27.5527 28.8536 27.6464C28.9473 27.7402 29 27.8674 29 28C29 28.1326 28.9473 28.2598 28.8536 28.3536C28.7598 28.4473 28.6326 28.5 28.5 28.5H24.5C24.3674 28.5 24.2402 28.4473 24.1464 28.3536C24.0527 28.2598 24 28.1326 24 28ZM24.5 29.5C24.3674 29.5 24.2402 29.5527 24.1464 29.6464C24.0527 29.7402 24 29.8674 24 30C24 30.1326 24.0527 30.2598 24.1464 30.3536C24.2402 30.4473 24.3674 30.5 24.5 30.5H28.5C28.6326 30.5 28.7598 30.4473 28.8536 30.3536C28.9473 30.2598 29 30.1326 29 30C29 29.8674 28.9473 29.7402 28.8536 29.6464C28.7598 29.5527 28.6326 29.5 28.5 29.5H24.5ZM20 28V29.5H21.5V28H20ZM19.5 27H22C22.1326 27 22.2598 27.0527 22.3536 27.1464C22.4473 27.2402 22.5 27.3674 22.5 27.5V30C22.5 30.1326 22.4473 30.2598 22.3536 30.3536C22.2598 30.4473 22.1326 30.5 22 30.5H19.5C19.3674 30.5 19.2402 30.4473 19.1464 30.3536C19.0527 30.2598 19 30.1326 19 30V27.5C19 27.3674 19.0527 27.2402 19.1464 27.1464C19.2402 27.0527 19.3674 27 19.5 27ZM22.8535 21.8535C22.9446 21.7592 22.995 21.6329 22.9938 21.5018C22.9927 21.3707 22.9401 21.2453 22.8474 21.1526C22.7547 21.0599 22.6293 21.0073 22.4982 21.0062C22.3671 21.005 22.2408 21.0554 22.1465 21.1465L20.5 22.793L19.8535 22.1465C19.7592 22.0554 19.6329 22.005 19.5018 22.0062C19.3707 22.0073 19.2453 22.0599 19.1526 22.1526C19.0599 22.2453 19.0073 22.3707 19.0062 22.5018C19.005 22.6329 19.0554 22.7592 19.1465 22.8535L20.5 24.207L22.8535 21.8535Z" fill="#54CD98"/>
</svg>
